<?xml version="1.0" encoding="utf-8"?>
<!-- Generator: Adobe Illustrator 27.7.0, SVG Export Plug-In . SVG Version: 6.00 Build 0)  -->
<svg version="1.1" id="Content" xmlns="http://www.w3.org/2000/svg" xmlns:xlink="http://www.w3.org/1999/xlink" x="0px" y="0px"
	 viewBox="0 0 136.25 30.93" style="enable-background:new 0 0 136.25 30.93;" xml:space="preserve">
<style type="text/css">
	.st0{fill:#3F6FDA;}
	.st1{fill:#FFFFFF;}
	.st2{fill:none;stroke:#3F6FDA;stroke-width:2;stroke-linecap:round;stroke-linejoin:round;stroke-miterlimit:10;}
	.st3{fill:none;stroke:#FFFFFF;stroke-width:3;stroke-miterlimit:10;}
	.st4{opacity:0.14;clip-path:url(#SVGID_00000152239174187200585940000005165189859639439236_);}
	.st5{fill:#A0BADB;}
	.st6{clip-path:url(#SVGID_00000148650884773697213890000006883611476319555763_);}
	.st7{fill:#7AB880;}
	.st8{fill:#306ED7;}
	.st9{fill:#272722;}
	.st10{fill:#69B882;}
	.st11{fill:url(#SVGID_00000132799721442951696640000005007747243598679463_);}
	.st12{fill:#FFFFFF;stroke:#1D1D1B;stroke-miterlimit:10;}
	.st13{fill:none;stroke:#1D1D1B;stroke-miterlimit:10;}
	.st14{fill:none;stroke:#7AB880;stroke-miterlimit:10;}
	.st15{opacity:0.14;clip-path:url(#SVGID_00000065052606801356955210000017635977739663701128_);}
	.st16{clip-path:url(#SVGID_00000002355032175765947160000001301746384829585306_);}
	.st17{fill:url(#SVGID_00000036236218286679406890000004720091929560585105_);}
	.st18{fill:#E7E7E9;}
	.st19{clip-path:url(#SVGID_00000172417595389995289310000013617251503926420884_);}
	.st20{fill:url(#SVGID_00000091726642032111441470000010293673584557117080_);}
	.st21{fill:none;stroke:#1D1D1B;stroke-width:0.75;stroke-miterlimit:10;}
	.st22{fill:none;stroke:#3F6FDA;stroke-miterlimit:10;}
	.st23{clip-path:url(#SVGID_00000129189447267495242000000008585078785862685583_);}
	.st24{fill:url(#SVGID_00000008839724138634703280000006290716861954427829_);}
	.st25{clip-path:url(#SVGID_00000088131465024107117970000018084862444397529229_);}
	.st26{fill:url(#SVGID_00000100350228654355239720000016750248123459851453_);}
	.st27{fill:#FFFFFF;stroke:#3F6FDA;stroke-linejoin:round;stroke-miterlimit:10;}
	.st28{fill:#FFFFFF;stroke:#1D1D1B;stroke-linejoin:round;stroke-miterlimit:10;}
	.st29{fill:none;stroke:#1D1D1B;stroke-linejoin:round;stroke-miterlimit:10;}
	.st30{fill:none;stroke:#7AB880;stroke-width:2;stroke-linejoin:round;stroke-miterlimit:10;}
	.st31{clip-path:url(#SVGID_00000096743522983582798110000002427936593656804493_);}
	.st32{fill:url(#SVGID_00000181798386232375894640000000635814201770308778_);}
	.st33{fill:none;stroke:#7AB880;stroke-linejoin:round;stroke-miterlimit:10;}
	.st34{opacity:0.3;fill:#D3D3DD;}
	.st35{fill:none;stroke:#3F6FDA;stroke-width:1.5;stroke-miterlimit:10;}
	.st36{fill:none;stroke:#3F6FDA;stroke-width:1.5;stroke-linecap:round;stroke-linejoin:round;stroke-miterlimit:10;}
	.st37{clip-path:url(#SVGID_00000034083763413780638160000010074438561109791654_);}
	.st38{clip-path:url(#SVGID_00000034070236164442349240000008723135029641979567_);}
	.st39{fill:#D5D5E0;}
	.st40{fill:#3F6FE8;}
	.st41{fill:#7AC68C;}
	.st42{clip-path:url(#SVGID_00000087379038240618616090000016521547569766752672_);}
	.st43{opacity:0.14;clip-path:url(#SVGID_00000086693354532614241810000007308103966217514642_);}
	.st44{fill:none;stroke:#7AB880;stroke-width:2;stroke-miterlimit:10;}
	.st45{clip-path:url(#SVGID_00000134233045890330995780000016200848001848986246_);}
	.st46{clip-path:url(#SVGID_00000180350706570765623810000015910908603627075211_);fill:#FFFFFF;}
	.st47{clip-path:url(#SVGID_00000180350706570765623810000015910908603627075211_);fill:#9AACC8;}
	.st48{clip-path:url(#SVGID_00000180350706570765623810000015910908603627075211_);fill:#748DB1;}
	.st49{clip-path:url(#SVGID_00000180350706570765623810000015910908603627075211_);fill:#E5E3E1;}
	.st50{clip-path:url(#SVGID_00000180350706570765623810000015910908603627075211_);fill:#BECDDB;}
	.st51{clip-path:url(#SVGID_00000180350706570765623810000015910908603627075211_);fill:#244780;}
	.st52{clip-path:url(#SVGID_00000180350706570765623810000015910908603627075211_);fill:#8AA1BF;}
	.st53{clip-path:url(#SVGID_00000180350706570765623810000015910908603627075211_);fill:#8199BA;}
	.st54{clip-path:url(#SVGID_00000180350706570765623810000015910908603627075211_);fill:#9FB6CA;}
	.st55{clip-path:url(#SVGID_00000180350706570765623810000015910908603627075211_);fill:#5D7CA4;}
	.st56{clip-path:url(#SVGID_00000180350706570765623810000015910908603627075211_);fill:#B2C4D3;}
	.st57{clip-path:url(#SVGID_00000180350706570765623810000015910908603627075211_);fill:#A8BCCE;}
	.st58{clip-path:url(#SVGID_00000180350706570765623810000015910908603627075211_);fill:#7898B6;}
	.st59{clip-path:url(#SVGID_00000180350706570765623810000015910908603627075211_);fill:#6B91B1;}
	.st60{clip-path:url(#SVGID_00000180350706570765623810000015910908603627075211_);fill:#85A2BE;}
	.st61{clip-path:url(#SVGID_00000180350706570765623810000015910908603627075211_);fill:#386D98;}
	.st62{clip-path:url(#SVGID_00000180350706570765623810000015910908603627075211_);fill:#5581A5;}
	.st63{clip-path:url(#SVGID_00000180350706570765623810000015910908603627075211_);fill:#7A99B7;}
	.st64{clip-path:url(#SVGID_00000180350706570765623810000015910908603627075211_);fill:#7193B4;}
	.st65{clip-path:url(#SVGID_00000180350706570765623810000015910908603627075211_);fill:#5C85A9;}
	.st66{clip-path:url(#SVGID_00000180350706570765623810000015910908603627075211_);fill:#638AAD;}
	.st67{clip-path:url(#SVGID_00000180350706570765623810000015910908603627075211_);fill:#7F9DBA;}
	.st68{clip-path:url(#SVGID_00000180350706570765623810000015910908603627075211_);fill:#8FAAC3;}
	.st69{clip-path:url(#SVGID_00000180350706570765623810000015910908603627075211_);fill:#46779F;}
	.st70{clip-path:url(#SVGID_00000180350706570765623810000015910908603627075211_);fill:#CECBC6;}
	.st71{clip-path:url(#SVGID_00000180350706570765623810000015910908603627075211_);fill:#5C819E;}
	.st72{clip-path:url(#SVGID_00000180350706570765623810000015910908603627075211_);fill:#6286A1;}
	.st73{clip-path:url(#SVGID_00000180350706570765623810000015910908603627075211_);fill:#4F7A9B;}
	.st74{clip-path:url(#SVGID_00000180350706570765623810000015910908603627075211_);fill:#9EAEB6;}
	.st75{clip-path:url(#SVGID_00000180350706570765623810000015910908603627075211_);fill:#8AA2AF;}
	.st76{fill:none;stroke:#2B2B27;stroke-miterlimit:10;}
	.st77{fill:none;stroke:#BDC0C5;stroke-width:0.75;stroke-miterlimit:10;}
	.st78{fill:none;stroke:#D8D8D8;stroke-width:0.75;stroke-miterlimit:10;}
</style>
<g id="Ilustración_12_00000044144812754620016380000007079924747330235032_">
	<g>
		<g>
			<path class="st1" d="M19.52,7.62v10.12c0,2.63-0.67,4.65-2.01,6.03c-1.33,1.37-3.05,2.06-5.12,2.06c-2.07,0-3.8-0.69-5.14-2.07
				c-1.34-1.37-2.03-3.4-2.03-6.03V5.9L0,0.55v17.53c0,3.91,1.19,7.05,3.53,9.35c2.34,2.3,5.32,3.46,8.87,3.46
				c3.51,0,6.49-1.17,8.85-3.46c2.36-2.3,3.55-5.45,3.55-9.35v-5.11L19.52,7.62z"/>
			<polygon class="st1" points="58.94,0.34 46.88,30.39 52.35,30.39 61.43,7.38 65.96,18.86 67.72,23.41 70.46,30.39 76.06,30.39 
				63.96,0.34 			"/>
			<path class="st1" d="M131.69,4.52c-3.03-3-6.74-4.52-11.03-4.52c-4.32,0-8.04,1.51-11.06,4.5c-3.01,2.98-4.54,6.68-4.54,10.97
				c0,4.3,1.53,7.99,4.54,10.97c3.01,2.98,6.73,4.5,11.06,4.5c4.3,0,8.01-1.52,11.03-4.52c3.03-3,4.56-6.68,4.56-10.95
				C136.25,11.2,134.71,7.51,131.69,4.52 M130.81,15.47c0,2.88-0.99,5.36-2.95,7.37c-1.96,2.01-4.38,3.03-7.2,3.03
				c-2.82,0-5.24-1.02-7.2-3.03c-1.96-2.01-2.95-4.49-2.95-7.37s0.99-5.36,2.95-7.37c1.96-2.01,4.38-3.03,7.2-3.03
				c2.82,0,5.24,1.02,7.2,3.03C129.81,10.11,130.81,12.59,130.81,15.47"/>
			<path class="st1" d="M93.38,19.87h3.53v3.71c-1.9,1.52-4,2.3-6.24,2.3c-2.82,0-5.24-1.02-7.18-3.03
				c-1.94-2.01-2.93-4.49-2.93-7.37c0-2.88,0.99-5.36,2.93-7.37c1.94-2.01,4.36-3.03,7.18-3.03c2.43,0,4.64,0.86,6.56,2.56
				l0.15,0.13l3.33-3.97l-0.15-0.13C97.67,1.23,94.35,0,90.67,0c-4.3,0-8,1.52-11.01,4.52c-3.01,3-4.54,6.68-4.54,10.95
				c0,4.27,1.53,7.95,4.54,10.95c3.01,3,6.72,4.52,11.01,4.52c4.3,0,8.08-1.68,11.25-4.98l0.05-0.06V15.23H88.74L93.38,19.87z"/>
			<path class="st1" d="M47.04,3.53L47.04,3.53c-2.03-1.98-4.75-2.98-8.07-2.98h-9.37v29.84h5.27v-7.16l-0.01-0.2v-8.2l0.01,0.01
				v-9.4h3.76c1.9,0,3.4,0.52,4.47,1.54c1.06,1.02,1.6,2.35,1.6,3.94c0,1.59-0.54,2.92-1.6,3.94c-1.06,1.02-2.57,1.54-4.47,1.54
				h-3.03l4.59,4.64l0.44,0c0.05,0,1.15,0,1.88-0.19c1.73-0.47,3.25-1.32,4.5-2.53c2.05-1.98,3.09-4.47,3.09-7.4
				C50.11,7.99,49.08,5.51,47.04,3.53"/>
			<polygon class="st1" points="19.45,0.55 19.45,6.17 25.07,6.17 			"/>
		</g>
	</g>
</g>
</svg>
